<mxfile host="app.diagrams.net" modified="2024-03-19T04:23:12.285Z" agent="Mozilla/5.0" version="22.1.21">
  <diagram id="use-case-diagram" name="Use Case Diagram">
    <mxGraphModel dx="0" dy="0" grid="1" gridSize="10" guides="1" tooltips="1" connect="1" arrows="1" fold="1" page="1" pageScale="1" pageWidth="850" pageHeight="1100" math="0" shadow="0">
      <root>
        <mxCell id="0"/>
        <mxCell id="1" parent="0"/>
        
        <!-- Actors -->
        <mxCell id="admin" value="Administrator" style="shape=umlActor;verticalLabelPosition=bottom;verticalAlign=top;html=1;" vertex="1" parent="1">
          <mxGeometry x="120" y="200" width="30" height="60" as="geometry"/>
        </mxCell>

        <!-- Use Cases -->
        <mxCell id="uc1" value="Xem danh sách người dùng" style="ellipse;whiteSpace=wrap;html=1;" vertex="1" parent="1">
          <mxGeometry x="300" y="120" width="140" height="70" as="geometry"/>
        </mxCell>

        <mxCell id="uc2" value="Phân quyền người dùng" style="ellipse;whiteSpace=wrap;html=1;" vertex="1" parent="1">
          <mxGeometry x="300" y="220" width="140" height="70" as="geometry"/>
        </mxCell>

        <mxCell id="uc3" value="Quản lý vai trò" style="ellipse;whiteSpace=wrap;html=1;" vertex="1" parent="1">
          <mxGeometry x="300" y="320" width="140" height="70" as="geometry"/>
        </mxCell>

        <!-- Lines -->
        <mxCell id="line1" value="" style="endArrow=none;html=1;rounded=0;entryX=0;entryY=0.5;entryDx=0;entryDy=0;" edge="1" parent="1" source="admin" target="uc1">
          <mxGeometry width="50" height="50" relative="1" as="geometry"/>
        </mxCell>

        <mxCell id="line2" value="" style="endArrow=none;html=1;rounded=0;entryX=0;entryY=0.5;entryDx=0;entryDy=0;" edge="1" parent="1" source="admin" target="uc2">
          <mxGeometry width="50" height="50" relative="1" as="geometry"/>
        </mxCell>

        <mxCell id="line3" value="" style="endArrow=none;html=1;rounded=0;entryX=0;entryY=0.5;entryDx=0;entryDy=0;" edge="1" parent="1" source="admin" target="uc3">
          <mxGeometry width="50" height="50" relative="1" as="geometry"/>
        </mxCell>

      </root>
    </mxGraphModel>
  </diagram>
</mxfile>
